<svg width="12" height="12" viewBox="0 0 12 12" fill="none" xmlns="http://www.w3.org/2000/svg">
<path d="M4.8112 0.389521C5.51866 -0.12984 6.48137 -0.12984 7.18881 0.389521L7.88446 0.900226C7.99929 0.984519 8.13279 1.03982 8.27356 1.0614L9.12661 1.19219C9.99407 1.32518 10.6748 2.00592 10.8078 2.8734L10.9386 3.72644C10.9602 3.86723 11.0155 4.00072 11.0998 4.11554L11.6105 4.8112C12.1298 5.51866 12.1298 6.48136 11.6105 7.18881L11.0998 7.88446C11.0155 7.99929 10.9602 8.13279 10.9386 8.27356L10.8078 9.12661C10.6748 9.99407 9.99407 10.6748 9.12661 10.8078L8.27356 10.9386C8.13279 10.9602 7.99929 11.0155 7.88446 11.0998L7.18881 11.6105C6.48136 12.1298 5.51866 12.1298 4.8112 11.6105L4.11554 11.0998C4.00072 11.0155 3.86723 10.9602 3.72644 10.9386L2.8734 10.8078C2.00592 10.6748 1.32518 9.99407 1.19219 9.12661L1.0614 8.27356C1.03982 8.13279 0.984519 7.99929 0.900226 7.88446L0.389521 7.18881C-0.12984 6.48136 -0.12984 5.51866 0.389521 4.8112L0.900226 4.11554C0.984519 4.00072 1.03982 3.86723 1.0614 3.72644L1.19219 2.8734C1.32518 2.00592 2.00592 1.32518 2.8734 1.19219L3.72644 1.0614C3.86723 1.03982 4.00072 0.984519 4.11554 0.900226L4.8112 0.389521Z" fill="#5B28EB"/>
<path d="M8.46023 4.28975C8.67991 4.50942 8.67991 4.86558 8.46023 5.08525L5.64775 7.89773C5.42808 8.1174 5.07192 8.1174 4.85225 7.89773L3.53975 6.58525C3.32008 6.36558 3.32008 6.00942 3.53975 5.78975C3.75942 5.57009 4.11558 5.57009 4.33525 5.78975L5.25 6.70451L7.66478 4.28975C7.88446 4.07008 8.24056 4.07008 8.46023 4.28975Z" fill="white"/>
</svg>
