<svg width="13" height="13" viewBox="0 0 13 13" fill="none" xmlns="http://www.w3.org/2000/svg">
<path d="M9.59294 6.1154L6.8846 3.40707C6.83309 3.35775 6.77234 3.3191 6.70585 3.29332C6.57398 3.23914 6.42606 3.23914 6.29419 3.29332C6.2277 3.3191 6.16695 3.35775 6.11544 3.40707L3.4071 6.1154C3.3566 6.16591 3.31654 6.22586 3.2892 6.29185C3.26187 6.35784 3.2478 6.42856 3.2478 6.49998C3.2478 6.64423 3.3051 6.78257 3.4071 6.88457C3.5091 6.98657 3.64744 7.04387 3.79169 7.04387C3.93593 7.04387 4.07427 6.98657 4.17627 6.88457L5.95835 5.09707V9.20832C5.95835 9.35198 6.01542 9.48975 6.117 9.59133C6.21859 9.69292 6.35636 9.74998 6.50002 9.74998C6.64368 9.74998 6.78145 9.69292 6.88304 9.59133C6.98462 9.48975 7.04169 9.35198 7.04169 9.20832V5.09707L8.82377 6.88457C8.87412 6.93534 8.93403 6.97563 9.00004 7.00313C9.06605 7.03063 9.13685 7.04479 9.20835 7.04479C9.27986 7.04479 9.35066 7.03063 9.41666 7.00313C9.48267 6.97563 9.54258 6.93534 9.59294 6.88457C9.6437 6.83421 9.684 6.7743 9.7115 6.7083C9.739 6.64229 9.75316 6.57149 9.75316 6.49998C9.75316 6.42848 9.739 6.35768 9.7115 6.29167C9.684 6.22566 9.6437 6.16576 9.59294 6.1154Z" fill="#353536"/>
</svg>
