<svg width="20" height="20" viewBox="0 0 20 20" fill="none" xmlns="http://www.w3.org/2000/svg">
<path d="M16.9313 3.74429C15.6344 3.15869 14.266 2.74074 12.8601 2.50085C12.8473 2.49874 12.8343 2.50057 12.8226 2.50607C12.811 2.51158 12.8014 2.5205 12.7951 2.5316C12.6188 2.83908 12.4238 3.24126 12.2876 3.55612C10.7721 3.32982 9.2306 3.32982 7.71513 3.55612C7.56315 3.20537 7.39121 2.86332 7.20014 2.5316C7.19372 2.52062 7.18408 2.5118 7.17248 2.50631C7.16088 2.50083 7.14786 2.49892 7.13514 2.50085C5.7289 2.73946 4.36017 3.15763 3.06393 3.74429C3.05284 3.74846 3.04356 3.75628 3.03768 3.76643C0.445207 7.57792 -0.266036 11.2959 0.0827103 14.9672C0.0839602 14.9844 0.0952101 15.0017 0.10896 15.0127C1.6186 16.113 3.30717 16.9531 5.10266 17.4971C5.11533 17.5011 5.12896 17.5009 5.14154 17.4967C5.15413 17.4925 5.16503 17.4845 5.17266 17.4738C5.55765 16.9572 5.90015 16.4124 6.19515 15.8392C6.20129 15.8274 6.2034 15.814 6.20115 15.8009C6.19889 15.7878 6.1924 15.7758 6.18265 15.7667C6.17619 15.7607 6.16852 15.7561 6.16015 15.7531C5.6216 15.5495 5.10003 15.3048 4.60016 15.0213C4.5862 15.0136 4.57582 15.0008 4.57116 14.9857C4.56651 14.9706 4.56794 14.9543 4.57516 14.9402C4.57942 14.931 4.58585 14.923 4.59391 14.9168C4.69891 14.8393 4.80391 14.7581 4.90391 14.677C4.91274 14.67 4.92334 14.6655 4.93457 14.664C4.9458 14.6625 4.95724 14.664 4.96766 14.6684C8.24137 16.1393 11.7851 16.1393 15.0188 14.6684C15.0296 14.6638 15.0415 14.6621 15.0531 14.6636C15.0648 14.6652 15.0758 14.6698 15.0851 14.677C15.1851 14.7581 15.2901 14.8393 15.395 14.9168C15.4036 14.9229 15.4104 14.931 15.4149 14.9404C15.4195 14.9497 15.4216 14.96 15.4211 14.9704C15.4206 14.9807 15.4175 14.9908 15.4121 14.9997C15.4067 15.0086 15.3991 15.016 15.39 15.0213C14.8913 15.3074 14.3691 15.5518 13.8288 15.7519C13.8202 15.755 13.8124 15.7599 13.8059 15.7662C13.7994 15.7726 13.7944 15.7803 13.7913 15.7888C13.7884 15.797 13.7873 15.8057 13.7879 15.8144C13.7886 15.8231 13.791 15.8315 13.7951 15.8392C14.0951 16.4111 14.4388 16.9572 14.8163 17.4738C14.8239 17.4845 14.8348 17.4925 14.8474 17.4967C14.86 17.5009 14.8736 17.5011 14.8863 17.4971C16.6848 16.9548 18.3761 16.1146 19.8875 15.0127C19.8951 15.0076 19.9014 15.0008 19.9059 14.9929C19.9105 14.985 19.9131 14.9763 19.9138 14.9672C20.3312 10.7228 19.215 7.03553 16.9563 3.76766C16.954 3.76226 16.9506 3.7574 16.9463 3.75337C16.942 3.74935 16.9369 3.74625 16.9313 3.74429ZM6.68389 12.7312C5.69765 12.7312 4.88641 11.8408 4.88641 10.7486C4.88641 9.65524 5.68265 8.76479 6.68389 8.76479C7.69263 8.76479 8.49637 9.66262 8.48137 10.7486C8.48137 11.8408 7.68513 12.7312 6.68389 12.7312ZM13.3288 12.7312C12.3438 12.7312 11.5313 11.8408 11.5313 10.7486C11.5313 9.65524 12.3276 8.76479 13.3288 8.76479C14.3376 8.76479 15.1426 9.66262 15.1263 10.7486C15.1263 11.8408 14.3376 12.7312 13.3288 12.7312Z" fill="#101828"/>
</svg>
