<svg width="25" height="24" viewBox="0 0 25 24" fill="none" xmlns="http://www.w3.org/2000/svg">
<path d="M16.6719 9.49219H15.5727C15.3336 9.49219 15.1063 9.60703 14.9657 9.80156L12.5001 13.2094L10.0344 9.80156C9.8938 9.60703 9.6688 9.49219 9.4274 9.49219H8.32818C8.17583 9.49219 8.08677 9.66563 8.17583 9.78984L12.3477 15.5555C12.4227 15.6586 12.5751 15.6586 12.6501 15.5555L16.8219 9.78984C16.9133 9.66563 16.8243 9.49219 16.6719 9.49219Z" fill="#666F85"/>
<path d="M12.5 1.5C6.70156 1.5 2 6.20156 2 12C2 17.7984 6.70156 22.5 12.5 22.5C18.2984 22.5 23 17.7984 23 12C23 6.20156 18.2984 1.5 12.5 1.5ZM12.5 20.7188C7.68594 20.7188 3.78125 16.8141 3.78125 12C3.78125 7.18594 7.68594 3.28125 12.5 3.28125C17.3141 3.28125 21.2188 7.18594 21.2188 12C21.2188 16.8141 17.3141 20.7188 12.5 20.7188Z" fill="#666F85"/>
</svg>
