<svg width="20" height="20" viewBox="0 0 20 20" fill="none" xmlns="http://www.w3.org/2000/svg">
<path d="M9.55163 2.16805C9.73504 1.79642 10.265 1.79642 10.4484 2.16804L12.281 5.8813C12.6451 6.61916 13.349 7.13058 14.1633 7.2489L18.2611 7.84435C18.6712 7.90394 18.835 8.40793 18.5382 8.6972L15.573 11.5876C14.9838 12.1619 14.7149 12.9894 14.854 13.8004L15.554 17.8817C15.6241 18.2901 15.1954 18.6016 14.8286 18.4087L11.1634 16.4818C10.435 16.0989 9.56496 16.0989 8.83665 16.4818L5.17145 18.4087C4.80463 18.6016 4.37591 18.2901 4.44597 17.8817L5.14596 13.8004C5.28506 12.9894 5.01619 12.1619 4.42697 11.5876L1.46176 8.6972C1.165 8.40793 1.32876 7.90394 1.73886 7.84435L5.83669 7.2489C6.65096 7.13058 7.35488 6.61916 7.71903 5.8813L9.55163 2.16805Z" fill="white" stroke="#D0D5DD" stroke-width="2"/>
</svg>
