<svg width="20" height="20" viewBox="0 0 20 20" fill="none" xmlns="http://www.w3.org/2000/svg">
<path d="M6.2825 18.3333C13.83 18.3333 17.9587 12.2403 17.9587 6.96561C17.9587 6.7951 17.9587 6.62216 17.9513 6.45166C18.7551 5.88472 19.4488 5.18281 20 4.37882C19.2491 4.70138 18.4535 4.91397 17.6388 5.00968C18.4969 4.50991 19.1397 3.72356 19.4475 2.79679C18.6412 3.26217 17.7588 3.58887 16.8387 3.76257C16.2202 3.12078 15.4018 2.69561 14.5101 2.55292C13.6185 2.41023 12.7034 2.55799 11.9067 2.97331C11.1099 3.38862 10.476 4.04832 10.1031 4.85022C9.73012 5.65211 9.63897 6.55144 9.84375 7.40892C8.21218 7.32921 6.61602 6.91624 5.1588 6.19681C3.70159 5.47737 2.41586 4.46754 1.385 3.23279C0.861675 4.11342 0.701967 5.1551 0.938308 6.14629C1.17465 7.13749 1.78932 8.00389 2.6575 8.56956C2.00692 8.54802 1.37065 8.37781 0.8 8.07266V8.12747C0.801122 9.04999 1.12913 9.94384 1.72859 10.6579C2.32805 11.372 3.16218 11.8626 4.09 12.0466C3.73783 12.1411 3.37404 12.1883 3.00875 12.1867C2.75123 12.1874 2.49423 12.1642 2.24125 12.1173C2.50348 12.9114 3.01409 13.6057 3.70156 14.103C4.38903 14.6003 5.21892 14.8756 6.075 14.8904C4.62069 16.0033 2.82425 16.6069 0.975 16.6039C0.649151 16.6053 0.323529 16.587 0 16.5491C1.87689 17.715 4.05662 18.334 6.2825 18.3333Z" fill="#101828"/>
</svg>
