<svg width="24" height="24" viewBox="0 0 24 24" fill="none" xmlns="http://www.w3.org/2000/svg">
<rect width="24" height="24" rx="12" fill="#36AFF9"/>
<path d="M9.39775 17.8333C14.681 17.8333 17.5711 13.5682 17.5711 9.87592C17.5711 9.75657 17.5711 9.63551 17.5659 9.51616C18.1286 9.1193 18.6142 8.62797 19 8.06517C18.4744 8.29096 17.9174 8.43978 17.3471 8.50678C17.9478 8.15694 18.3978 7.60649 18.6132 6.95775C18.0489 7.28352 17.4311 7.51221 16.7871 7.6338C16.3542 7.18454 15.7812 6.88692 15.1571 6.78704C14.5329 6.68716 13.8924 6.79059 13.3347 7.08131C12.777 7.37204 12.3332 7.83383 12.0721 8.39515C11.8111 8.95648 11.7473 9.58601 11.8906 10.1862C10.7485 10.1304 9.63121 9.84137 8.61116 9.33777C7.59111 8.83416 6.6911 8.12728 5.9695 7.26295C5.60317 7.8794 5.49138 8.60857 5.65682 9.30241C5.82225 9.99624 6.25252 10.6027 6.86025 10.9987C6.40485 10.9836 5.95946 10.8645 5.56 10.6509V10.6892C5.56079 11.335 5.79039 11.9607 6.21001 12.4606C6.62964 12.9604 7.21353 13.3038 7.863 13.4326C7.61648 13.4988 7.36183 13.5318 7.10613 13.5307C6.92586 13.5312 6.74596 13.5149 6.56887 13.4821C6.75244 14.038 7.10986 14.524 7.59109 14.8721C8.07232 15.2202 8.65324 15.4129 9.2525 15.4233C8.23449 16.2023 6.97698 16.6248 5.6825 16.6228C5.45441 16.6237 5.22647 16.6109 5 16.5844C6.31383 17.4005 7.83964 17.8338 9.39775 17.8333Z" fill="white"/>
</svg>
