<svg width="24" height="24" viewBox="0 0 24 24" fill="none" xmlns="http://www.w3.org/2000/svg">
<rect width="24" height="24" rx="12" fill="#4DCC9E"/>
<path d="M18.5893 14.3692L18.6095 14.3019C19.1302 12.8115 19.1302 11.1885 18.6095 9.69808L18.5893 9.63077C18.0998 8.27544 17.2046 7.10381 16.0256 6.27525C14.8466 5.44669 13.441 5.00142 12 5C10.559 5.00142 9.15339 5.44669 7.9744 6.27525C6.7954 7.10381 5.90025 8.27544 5.41069 9.63077L5.3905 9.69808C4.86983 11.1885 4.86983 12.8115 5.3905 14.3019L5.41069 14.3692C5.90191 15.7235 6.79748 16.894 7.97611 17.7223C9.15473 18.5506 10.5594 18.9966 12 19C13.441 18.9986 14.8466 18.5533 16.0256 17.7247C17.2046 16.8962 18.0998 15.7246 18.5893 14.3692ZM12 6.45385C12.7841 7.26039 13.3714 8.23702 13.7163 9.30769H10.2837C10.6286 8.23702 11.2159 7.26039 12 6.45385ZM10.2837 14.6923H13.7163C13.3714 15.763 12.7841 16.7396 12 17.5462C11.2159 16.7396 10.6286 15.763 10.2837 14.6923ZM10.001 13.6154C9.79464 12.5483 9.79464 11.4517 10.001 10.3846H13.999C14.2054 11.4517 14.2054 12.5483 13.999 13.6154H10.001ZM15.0961 10.3846H17.7009C17.9971 11.4412 17.9971 12.5588 17.7009 13.6154H15.0961C15.2756 12.5459 15.2756 11.4541 15.0961 10.3846ZM17.2768 9.30769H14.8538C14.5299 8.17377 13.978 7.11791 13.2317 6.20481C14.0934 6.39086 14.9031 6.76565 15.6026 7.30218C16.302 7.83872 16.8738 8.52365 17.2768 9.30769ZM13.2317 17.7952C13.978 16.8821 14.5299 15.8262 14.8538 14.6923H17.2768C16.8738 15.4763 16.302 16.1613 15.6026 16.6978C14.9031 17.2344 14.0934 17.6091 13.2317 17.7952Z" fill="white"/>
</svg>
