<svg fill="none" height="8" viewBox="0 0 11 8" width="11" xmlns="http://www.w3.org/2000/svg"><path d="m.0534153 4.91333c.0317296-.08183.0793067-.15659.1400007-.22l2.000004-2c.12553-.12553.29579-.19606.47333-.19606.17753 0 .3478.07053.47333.19606.12554.12554.19606.2958.19606.47334 0 .17753-.07052.34779-.19606.47333l-.86666.86h6.39333c.17681 0 .34638-.07024.4714-.19526.12503-.12503.19526-.2946.19526-.47141v-2.66666c0-.176814.07024-.346383.19527-.471408.12502-.125024.29459-.195262.47142-.195262.1768 0 .3464.070238.4714.195262.125.125025.1952.294594.1952.471408v2.66666c0 .53044-.2107 1.03914-.5857 1.41422-.37511.37507-.88382.58578-1.41425.58578h-6.39333l.86666.86c.06249.06198.11208.13571.14593.21695s.05127.16838.05127.25639c0 .088-.01742.17514-.05127.25638s-.08344.15497-.14593.21695c-.06197.06249-.13571.11208-.21695.14593-.08124.03384-.16837.05127-.25638.05127s-.17515-.01743-.25639-.05127c-.08124-.03385-.15497-.08344-.21694-.14593l-2.000004-2c-.060694-.0634-.1082711-.13817-.1400007-.22-.0666787-.16231-.0666787-.34436 0-.50667z" fill="#520cab"/></svg>