<svg width="11" height="8" viewBox="0 0 11 8" fill="none" xmlns="http://www.w3.org/2000/svg">
<path d="M0.0534153 4.91333C0.0851449 4.8315 0.132722 4.75674 0.193416 4.69333L2.19342 2.69333C2.31895 2.5678 2.48921 2.49727 2.66675 2.49727C2.84428 2.49727 3.01455 2.5678 3.14008 2.69333C3.26562 2.81887 3.33614 2.98913 3.33614 3.16667C3.33614 3.3442 3.26562 3.51446 3.14008 3.64L2.27342 4.5H8.66675C8.84356 4.5 9.01313 4.42976 9.13815 4.30474C9.26318 4.17971 9.33341 4.01014 9.33341 3.83333V1.16667C9.33341 0.989856 9.40365 0.820287 9.52868 0.695262C9.6537 0.570238 9.82327 0.5 10.0001 0.5C10.1769 0.5 10.3465 0.570238 10.4715 0.695262C10.5965 0.820287 10.6667 0.989856 10.6667 1.16667V3.83333C10.6667 4.36377 10.456 4.87247 10.081 5.24755C9.70589 5.62262 9.19718 5.83333 8.66675 5.83333H2.27342L3.14008 6.69333C3.20257 6.75531 3.25216 6.82904 3.28601 6.91028C3.31986 6.99152 3.33728 7.07866 3.33728 7.16667C3.33728 7.25467 3.31986 7.34181 3.28601 7.42305C3.25216 7.50429 3.20257 7.57802 3.14008 7.64C3.07811 7.70249 3.00437 7.75208 2.92313 7.78593C2.84189 7.81977 2.75476 7.8372 2.66675 7.8372C2.57874 7.8372 2.4916 7.81977 2.41036 7.78593C2.32912 7.75208 2.25539 7.70249 2.19342 7.64L0.193416 5.64C0.132722 5.5766 0.0851449 5.50183 0.0534153 5.42C-0.0132634 5.25769 -0.0132634 5.07564 0.0534153 4.91333Z" fill="#520CAB"/>
</svg>
