<svg fill="none" height="13" viewBox="0 0 13 13" width="13" xmlns="http://www.w3.org/2000/svg"><path d="m1.66842 6.83583c.02578-.06649.06443-.12723.11375-.17875l1.625-1.625c.10199-.10199.24033-.1593.38458-.1593s.28258.05731.38458.1593c.102.102.1593.24034.1593.38459 0 .14424-.0573.28258-.1593.38458l-.70416.69875h5.19458c.14366 0 .28143-.05707.38301-.15865.10159-.10158.15865-.23936.15865-.38302v-2.16666c0-.14366.05707-.28144.15866-.38302.10158-.10158.23935-.15865.38301-.15865s.28142.05707.38302.15865.1586.23936.1586.38302v2.16666c0 .43098-.1712.84431-.4759 1.14905-.30475.30475-.71808.47595-1.14905.47595h-5.19458l.70416.69875c.05077.05036.09107.11027.11857.17627.0275.06601.04166.13681.04166.20832 0 .0715-.01416.1423-.04166.20831s-.0678.12591-.11857.17627c-.05035.05077-.11026.09107-.17627.11857s-.13681.04165-.20831.04165c-.07151 0-.14231-.01415-.20831-.04165-.06601-.0275-.12592-.0678-.17627-.11857l-1.625-1.625c-.04932-.05151-.08797-.11226-.11375-.17875-.05418-.13187-.05418-.27979 0-.41167z" fill="#353536"/></svg>