<svg fill="none" height="10" viewBox="0 0 21 10" width="21" xmlns="http://www.w3.org/2000/svg"><path d="m.96875 9v-8h4.82812v.85937h-3.85937v2.70313h3.60938v.85937h-3.60938v2.71875h3.92188v.85938zm10.94925-6c-.0469-.39583-.237-.70312-.5703-.92188-.3334-.21875-.7422-.32812-1.2266-.32812-.35417 0-.66407.05729-.92969.17187-.26302.11459-.46875.27214-.61719.47266-.14583.20052-.21875.42839-.21875.68359 0 .21355.05078.39714.15234.55079.10417.15104.23698.27734.39844.3789.16146.09896.33073.18099.50781.2461.17709.0625.33985.11328.48828.15234l.81246.21875c.2084.05469.4401.13021.6954.22656.2578.09636.5039.22787.7382.39453.237.16407.4323.375.586.63282.1536.25781.2304.57421.2304.94921 0 .4323-.1132.82292-.3398 1.17188-.224.34896-.5521.6263-.9844.83203-.4297.20573-.9518.3086-1.5664.3086-.5729 0-1.06899-.09245-1.48826-.27735-.41667-.18489-.74479-.44271-.98438-.77344-.23698-.33073-.37109-.71484-.40234-1.15234h1c.02604.30208.1276.55208.30469.75.17968.19531.40625.34115.67968.4375.27605.09375.57292.14062.89061.14062.3698 0 .7018-.05989.9961-.17968.2943-.1224.5274-.29167.6992-.50782.1719-.21875.2578-.47395.2578-.76562 0-.26563-.0742-.48177-.2226-.64844-.1484-.16666-.3438-.30208-.5859-.40625-.2422-.10416-.504-.19531-.7852-.27344l-.98438-.28125c-.625-.17968-1.11979-.43619-1.48438-.76953-.36458-.33333-.54687-.76953-.54687-1.30859 0-.44792.12109-.83854.36328-1.17188.24479-.33593.57292-.59635.98437-.78125.41407-.187495.87631-.281245 1.38668-.281245.5157 0 .974.092448 1.375.277345.4011.18229.7188.43229.9532.75.2369.31771.3619.67838.375 1.08203zm9.0771.5h-.9687c-.0573-.27865-.1576-.52344-.3008-.73438-.1406-.21093-.3125-.38802-.5156-.53124-.2006-.14584-.4232-.25521-.668-.32813s-.5-.10938-.7656-.10938c-.4844 0-.9232.1224-1.3164.36719-.3907.24479-.7019.60547-.9336 1.08203-.2292.47657-.3438 1.0612-.3438 1.75391s.1146 1.27734.3438 1.75391c.2317.47656.5429.83724.9336 1.08203.3932.24479.832.36718 1.3164.36718.2656 0 .5208-.03645.7656-.10937s.4674-.18099.668-.32422c.2031-.14583.375-.32422.5156-.53516.1432-.21354.2435-.45833.3008-.73437h.9687c-.0729.40885-.2057.77474-.3984 1.09766-.1927.32291-.4323.59765-.7188.82421-.2864.22396-.608.39454-.9648.51172-.3542.11719-.7331.17578-1.1367.17578-.6823 0-1.2891-.16666-1.8203-.49999-.5313-.33334-.9493-.8073-1.254-1.42188-.3046-.61458-.457-1.34375-.457-2.1875s.1524-1.57292.457-2.1875c.3047-.61458.7227-1.08854 1.254-1.42188.5312-.33333 1.138-.499995 1.8203-.499995.4036 0 .7825.058593 1.1367.175785.3568.11718.6784.28906.9648.51562.2865.22396.5261.4974.7188.82031.1927.32032.3255.6862.3984 1.09766z" fill="#353536"/></svg>