<svg fill="none" height="12" viewBox="0 0 12 12" width="12" xmlns="http://www.w3.org/2000/svg"><path d="m4.8112.389521c.70746-.519361 1.67017-.519361 2.37761 0l.69565.510705c.11483.084293.24833.139594.3891.161174l.85305.13079c.86746.13299 1.54819.81373 1.68119 1.68121l.1308.85304c.0216.14079.0769.27428.1612.3891l.5107.69566c.5193.70746.5193 1.67016 0 2.37761l-.5107.69565c-.0843.11483-.1396.24833-.1612.3891l-.1308.85305c-.133.86746-.81373 1.54819-1.68119 1.68119l-.85305.1308c-.14077.0216-.27427.0769-.3891.1612l-.69565.5107c-.70745.5193-1.67015.5193-2.37761 0l-.69566-.5107c-.11482-.0843-.24831-.1396-.3891-.1612l-.85304-.1308c-.86748-.133-1.54822-.81373-1.68121-1.68119l-.13079-.85305c-.02158-.14077-.076881-.27427-.161174-.3891l-.510705-.69565c-.519361-.70745-.519361-1.67015 0-2.37761l.510705-.69566c.084293-.11482.139594-.24831.161174-.3891l.13079-.85304c.13299-.86748.81373-1.54822 1.68121-1.68121l.85304-.13079c.14079-.02158.27428-.076881.3891-.161174z" fill="#5b28eb"/><path d="m8.46023 4.28975c.21968.21967.21968.57583 0 .7955l-2.81248 2.81248c-.21967.21967-.57583.21967-.7955 0l-1.3125-1.31248c-.21967-.21967-.21967-.57583 0-.7955.21967-.21966.57583-.21966.7955 0l.91475.91476 2.41478-2.41476c.21968-.21967.57578-.21967.79545 0z" fill="#fff"/></svg>