<svg fill="none" height="41" viewBox="0 0 51 41" width="51" xmlns="http://www.w3.org/2000/svg" xmlns:xlink="http://www.w3.org/1999/xlink"><linearGradient id="a" gradientUnits="userSpaceOnUse" x1="25.1945" x2="29.2512" y1="21.4729" y2="37.2833"><stop offset="0"/><stop offset="1"/></linearGradient><path d="m22.8637 36.9661c-1.5377-3.8439-4.3289-7.2186-8.1924-9.4492-4.6249-2.6703-9.90138-3.1898-14.6713-1.869 1.24109 4.7913 4.32926 9.1011 8.95422 11.7713 2.07588 1.1986 4.28308 1.9638 6.51688 2.3238.5236-.0417 1.0696-.0957 1.6417-.1604 2.2421-.2539 4.3-1.2032 5.7509-2.6165z" fill="#6edfa3" opacity=".9"/><path d="m32.3113 32.6739c-.2894-.434-.5545-.8327-.8036-1.2075 1.3441-1.5322 2.9578-2.874 4.821-3.9497 4.625-2.6702 9.9014-3.1897 14.6713-1.8689-1.2411 4.7913-4.3292 9.101-8.9542 11.7712-2.3002 1.3281-4.7615 2.1241-7.2416 2.4264-.0756-2.5164-1.2959-5.3759-2.4929-7.1715z" fill="#943dff" opacity=".9"/><path d="m22.652 25.3586c-.9355-1.5688-2.0785-3.0483-3.4291-4.3988-4.4429-4.4429-10.28118-6.6401-16.10419-6.5916-.04855 5.823 2.14864 11.6613 6.59157 16.1042 3.70732 3.7073 8.38622 5.851 13.21702 6.431 1.5033-1.4969 2.3318-3.5007 1.9973-5.744-.3126-2.0957-1.1202-3.6186-1.8709-5.0342-.1369-.2581-.2719-.5127-.4017-.7666z" fill="#2ae6da" opacity=".9"/><path d="m31.145 30.9204c-1.0368-1.5611-1.839-2.7689-3.1028-4.6096 1.0162-1.8897 2.3219-3.6647 3.9171-5.2599 4.443-4.443 10.2812-6.6402 16.1042-6.5916.0486 5.823-2.1486 11.6613-6.5915 16.1042-2.2521 2.2521-4.8626 3.9271-7.6479 5.0252-.4397-1.1002-.9786-2.1134-1.5128-2.9148-.434-.651-.8135-1.2224-1.1659-1.753l-.0002-.0003z" fill="#6047fc" opacity=".9"/><path d="m28.9112 27.5836c-.2826-.4164-.5851-.8594-.92-1.3469-1.7618-2.5648-2.4564-4.5304-1.8561-5.4879.2236-.3568.5451-.6704.945-.9053 1.055 2.5123 1.6562 5.1266 1.8311 7.7401zm-4.3681 6.9161c.4079-1.0186.5596-2.1454.3814-3.3402-.3125-2.0957-1.1201-3.6187-1.8708-5.0342-.6904-1.3018-1.3326-2.5129-1.4973-3.9951-.3438-3.094 1.1804-4.6673 3.6382-4.926.1948-.0205.3873-.0248.5766-.015-.0217-.0382-.0436-.0762-.0656-.1143-.1878-.3254-.382-.6448-.5824-.9581-.0028.0035-.0056.007-.0084.0105-.1271-.1583-.239-.336-.3328-.5294-3.4176-5.0574-8.4679-8.45663-14.0288-9.89709-1.67775 6.05899-1.01779 12.76139 2.374 18.63619 2.7193 4.71 6.7773 8.1652 11.4159 10.1627zm-.2419-18.1231c.0435-.7088-.1331-1.4581-.5392-2.0759-.4062-.6177-.964-.9857-1.5354-1.0797-.0434.7088.1332 1.4581.5393 2.0758.4061.6178.964.9858 1.5353 1.0798zm.764 3.2853c.3572 0 .6468-.2896.6468-.6468s-.2896-.6468-.6468-.6468-.6468.2896-.6468.6468.2896.6468.6468.6468z" fill="#1adffe" opacity=".9"/><path d="m24.103 35.3957c-.3671.1138-.7367.2189-1.1087.3153-.9554-3.4504-1.1528-7.1094-.5192-10.7054.1818.3714.3781.7417.5785 1.1196.7507 1.4156 1.5584 2.9385 1.8709 5.0342.2322 1.5574-.096 2.9993-.8215 4.2363zm7.4708-3.8298c-.1481-.2228-.2904-.4371-.4285-.645l-.0002-.0003-.0002-.0002c-1.0506-1.582-1.8604-2.8012-3.1537-4.6838-1.7618-2.5648-2.4564-4.5304-1.8561-5.4879.6002-.9575 1.9052-1.6043 3.5414-1.2533-.5663-.8495-2.3307-2.4563-4.3769-2.3008.0228-.04.0457-.0799.0687-.1198.1634-.283.3316-.5614.5045-.8353-.0018.093.0001.1857.0058.2777.5713-.094 1.1292-.462 1.5353-1.0798.3965-.6031.5742-1.3316.542-2.0254 3.2974-3.85772 7.6474-6.48934 12.3649-7.71132 1.6777 6.05902 1.0178 12.76142-2.374 18.63622-1.6754 2.9017-3.8588 5.3272-6.373 7.229zm-7.131-12.7274c.0313-.066.0629-.1319.0948-.1978.1173-.1649.3099-.2725.5276-.2725.3572 0 .6468.2896.6468.6468s-.2896.6468-.6468.6468-.6468-.2896-.6468-.6468c0-.0612.0085-.1204.0244-.1765z" fill="#416afc" opacity=".9"/><path d="m23.4827 36.2892c1.1452-1.4121 1.7326-3.1805 1.4419-5.1297-.3125-2.0957-1.1201-3.6187-1.8708-5.0342-.6904-1.3019-1.3326-2.5129-1.4973-3.9951-.3438-3.094 1.1804-4.6673 3.6382-4.926 2.0906-.2201 3.9059 1.4273 4.4819 2.2913-1.6361-.351-2.9411.2958-3.5414 1.2532-.6003.9575.0943 2.9232 1.8561 5.4879 1.2417 1.8076 2.0377 3.0036 3.0292 4.4962 1.638-3.4834 2.5536-7.3738 2.5536-11.478 0-7.5387-3.089-14.35583-8.0704-19.2548-4.9813 4.89897-8.0704 11.7161-8.0704 19.2548 0 6.4585 2.2673 12.3875 6.0494 17.0344zm2.2887-22.1459c0 .7768-.2513 1.4792-.6565 1.984-.4052-.5048-.6564-1.2072-.6564-1.984s.2512-1.4792.6564-1.984c.4052.5048.6565 1.2072.6565 1.984zm-1.4701 2.2333c.0435-.7089-.1331-1.4581-.5392-2.0759-.4062-.6177-.964-.9857-1.5353-1.0797-.0435.7088.1331 1.4581.5392 2.0758.4061.6178.964.9858 1.5353 1.0798zm3.652-3.015c.0435.7088-.1332 1.4581-.5393 2.0758-.4061.6178-.964.9858-1.5353 1.0798-.0435-.7088.1331-1.4581.5392-2.0758.4062-.6178.964-.9858 1.5354-1.0798zm-2.888 6.3002c.3572 0 .6468-.2895.6468-.6467s-.2896-.6468-.6468-.6468-.6467.2896-.6467.6468.2895.6467.6467.6467z" fill="#2292f9" opacity=".9"/><path d="m26.1021 20.8066c-1.1642 1.811-.3255 3.9001 1.4208 7.3927 1.6816 3.3632 2.7339 6.6193 1.6816 9.3135-.4594 1.1763-1.2467 2.1885-2.6525 2.9758.0849.0116.1737.0223.2662.032 3.1791-.0392 6.0785-.2749 7.9939-.6494-.4009-3.5017-1.1076-4.8533-3.1499-8.1793-.5938-.9671-1.3155-1.9972-2.043-3.0355-2.0886-2.9807-4.2246-6.0291-3.5171-7.8498z" fill="url(#a)"/></svg>