<svg fill="none" height="20" viewBox="0 0 103 20" width="103" xmlns="http://www.w3.org/2000/svg"><g fill="#1c1b1d"><path d="m0 18.95h2.80566v-11.54009h.05079l3.87207 8.88669h2.33593l3.87205-8.88669h.0635v11.54009h2.8057v-18.509814h-2.6534l-5.20503 12.060514-5.30665-12.060514h-2.64062z"/><path d="m29.6816 13.364v-2.1836c-.0169-1.73501-.5543-3.09764-1.6123-4.08787-1.041-.97331-2.3147-1.46843-3.8213-1.48535-.6263 0-1.261.11426-1.9042.34277-.6517.22852-1.24.60091-1.7647 1.11719-.5163.50781-.9395 1.20182-1.2695 2.08203-.3301.86333-.4951 1.94663-.4951 3.25003 0 1.3541.1904 2.4544.5712 3.3008.347.8802.7998 1.5657 1.3584 2.0566.2878.237.5967.4359.9268.5967.3131.1862.6348.3343.9648.4443.6602.2031 1.3373.3047 2.0313.3047 1.8197.0169 3.4023-.694 4.748-2.1328l-1.917-1.6377c-.8463.8548-1.8069 1.2822-2.8818 1.2822-.9225 0-1.6673-.2793-2.2344-.8379-.6093-.5501-.914-1.3541-.914-2.4121zm-8.2138-2.1836c.0508-1.0241.3258-1.79848.8252-2.32322.5078-.49935 1.1595-.74903 1.955-.74903.7956 0 1.4473.24968 1.9551.74903.5163.52474.7914 1.29912.8252 2.32322z"/><path d="m32.6143 5.77222h-1.3204v2.01855h1.3204v7.90923c0 1.041.3046 1.8365.914 2.3867.5925.5755 1.3542.8633 2.2852.8633h1.3838v-2.501h-.9903c-.6432.0169-.9563-.3089-.9394-.9776v-7.68063h1.9297v-2.01855h-1.9297v-4.01172h-2.6533z"/><path d="m46.6172 18.95h2.6533v-9.00103c-.0169-1.60807-.5205-2.74218-1.5107-3.40234-.9903-.64323-2.3148-.95638-3.9737-.93945-1.9635-.03386-3.4489.60937-4.456 1.92969l2.082 1.58691c.2285-.38086.5417-.65169.9395-.8125.3808-.13542.9013-.20313 1.5615-.20313 1.8196-.03385 2.721.52898 2.7041 1.68848v1.38377h-3.669c-1.4049.0169-2.4713.3978-3.1992 1.1426-.7278.7279-1.0918 1.6462-1.0918 2.7549 0 1.1595.419 2.1116 1.2569 2.8564.7955.7617 1.9297 1.1511 3.4023 1.168.8971 0 1.5996-.11 2.1074-.3301.5163-.2116.8972-.5416 1.1426-.9902h.0508zm0-4.6338c0 .9902-.2074 1.625-.6221 1.9043-.457.2793-1.2399.4104-2.3486.3935-.8802 0-1.5108-.1735-1.8916-.5205-.3978-.3131-.5967-.694-.5967-1.1426-.0169-1.0241.7448-1.553 2.2852-1.5869h3.1738z"/><path d="m55.7451 3.09351h4.0498c.7617-.01693 1.4304.15657 2.0059.5205.3808.22006.6771.52051.8887.90137.2031.42318.3046.94369.3046 1.56152 0 .7448-.2496 1.42188-.749 2.03125-.5247.62631-1.3076.94792-2.3486.96485h-4.1514zm-2.8056 15.85649h2.8056v-7.2237h4.2656c1.9043-.0338 3.3516-.6432 4.3418-1.82811.9649-1.12565 1.4473-2.37402 1.4473-3.74511 0-1.01563-.1904-1.89584-.5713-2.64063-.3639-.77018-.8379-1.36263-1.4219-1.77734-.694-.55013-1.3795-.914065-2.0566-1.091799-.6771-.135417-1.3796-.203125-2.1074-.203125h-6.7031z"/><path d="m74.3691 18.95h2.6534v-9.00103c-.017-1.60807-.5205-2.74218-1.5108-3.40234-.9902-.64323-2.3148-.95638-3.9736-.93945-1.9636-.03386-3.4489.60937-4.4561 1.92969l2.0821 1.58691c.2285-.38086.5416-.65169.9394-.8125.3809-.13542.9014-.20313 1.5615-.20313 1.8197-.03385 2.7211.52898 2.7041 1.68848v1.38377h-3.6689c-1.405.0169-2.4714.3978-3.1992 1.1426-.7279.7279-1.0918 1.6462-1.0918 2.7549 0 1.1595.4189 2.1116 1.2568 2.8564.7956.7617 1.9297 1.1511 3.4024 1.168.8971 0 1.5996-.11 2.1074-.3301.5163-.2116.8971-.5416 1.1426-.9902h.0507zm0-4.6338c0 .9902-.2073 1.625-.622 1.9043-.4571.2793-1.2399.4104-2.3487.3935-.8802 0-1.5107-.1735-1.8916-.5205-.3978-.3131-.5966-.694-.5966-1.1426-.017-1.0241.7447-1.553 2.2851-1.5869h3.1738z"/><path d="m83.4209 18.95h2.1836l4.8369-13.17778h-2.8184l-3.0849 9.22948h-.0508l-3.0977-9.22948h-2.8056z"/><path d="m91.3555 12.3484c0 1.388.1142 2.446.3427 3.1738.237.7279.601 1.3584 1.0918 1.8916.364.4147.8718.7871 1.5235 1.1172.6432.3639 1.4684.5544 2.4756.5713 1.041-.0169 1.8831-.2074 2.5263-.5713.347-.1523.6306-.3343.8506-.5459.245-.1862.453-.3766.622-.5713.525-.5332.897-1.1637 1.117-1.8916.212-.7278.318-1.7858.318-3.1738s-.106-2.45444-.318-3.19923c-.22-.72786-.592-1.34147-1.117-1.84082-.347-.4401-.8378-.83366-1.4726-1.18066-.6432-.33008-1.4853-.50359-2.5263-.52051-1.0072.01692-1.8324.19043-2.4756.52051-.6517.347-1.1595.74056-1.5235 1.18066-.4908.49935-.8548 1.11296-1.0918 1.84082-.2285.74479-.3427 1.81123-.3427 3.19923zm8.2138.0254c0 .8971-.0423 1.5573-.1269 1.9804-.0847.4317-.2582.8125-.5205 1.1426-.1947.2539-.4824.4782-.8633.6729-.3639.1862-.7871.2793-1.2695.2793-.4486 0-.8633-.0931-1.2442-.2793-.3639-.1947-.6601-.419-.8887-.6729-.2285-.3301-.3935-.7109-.4951-1.1426-.1015-.4231-.1523-1.0917-.1523-2.0058 0-.9225.0508-1.5996.1523-2.0313.1016-.41468.2666-.77861.4951-1.09176.2286-.29622.5248-.52897.8887-.69824.3809-.17773.7956-.2666 1.2442-.2666.4824 0 .9056.08887 1.2695.2666.3809.16927.6686.40202.8633.69824.2623.31315.4358.67708.5205 1.09176.0846.4317.1269 1.1172.1269 2.0567z"/></g></svg>