<svg fill="none" height="13" viewBox="0 0 13 13" width="13" xmlns="http://www.w3.org/2000/svg"><path d="m9.59294 6.1154-2.70834-2.70833c-.05151-.04932-.11226-.08797-.17875-.11375-.13187-.05418-.27979-.05418-.41166 0-.06649.02578-.12724.06443-.17875.11375l-2.70834 2.70833c-.0505.05051-.09056.11046-.1179.17645-.02733.06599-.0414.13671-.0414.20813 0 .14425.0573.28259.1593.38459s.24034.1593.38459.1593c.14424 0 .28258-.0573.38458-.1593l1.78208-1.7875v4.11125c0 .14366.05707.28143.15865.38301.10159.10159.23936.15865.38302.15865s.28143-.05706.38302-.15865c.10158-.10158.15865-.23935.15865-.38301v-4.11125l1.78208 1.7875c.05035.05077.11026.09106.17627.11856s.13681.04166.20831.04166c.07151 0 .14231-.01416.20831-.04166.06601-.0275.12592-.06779.17628-.11856.05076-.05036.09106-.11027.11856-.17627.0275-.06601.04166-.13681.04166-.20832 0-.0715-.01416-.1423-.04166-.20831s-.0678-.12591-.11856-.17627z" fill="#353536"/></svg>