<svg fill="none" height="13" viewBox="0 0 13 13" width="13" xmlns="http://www.w3.org/2000/svg"><path d="m9.59294 6.11542c-.05036-.05077-.11027-.09107-.17628-.11857-.066-.0275-.1368-.04166-.20831-.04166-.0715 0-.1423.01416-.20831.04166s-.12592.0678-.17627.11857l-1.78208 1.7875v-4.11125c0-.14366-.05707-.28144-.15865-.38302-.10159-.10158-.23936-.15865-.38302-.15865s-.28143.05707-.38302.15865c-.10158.10158-.15865.23936-.15865.38302v4.11125l-1.78208-1.7875c-.102-.102-.24034-.1593-.38458-.1593-.14425 0-.28259.0573-.38459.1593-.102.10199-.1593.24033-.1593.38458s.0573.28259.1593.38458l2.70834 2.70834c.05151.04931.11226.08797.17875.11375.06483.02865.13494.04346.20583.04346s.14099-.01481.20583-.04346c.06649-.02578.12724-.06444.17875-.11375l2.70834-2.70834c.05076-.05035.09106-.11026.11856-.17627.0275-.066.04166-.1368.04166-.20831s-.01416-.14231-.04166-.20831c-.0275-.06601-.0678-.12592-.11856-.17627z" fill="#353536"/></svg>