<svg fill="none" height="14" viewBox="0 0 14 14" width="14" xmlns="http://www.w3.org/2000/svg"><path d="m13.5861 4.64112s0 0 0-.0351c-.4942-1.35059-1.391-2.51665-2.5689-3.34044-1.17792-.823801-2.58022-1.26558-4.0172-1.26558s-2.83928.441779-4.01721 1.26558c-1.17794.82379-2.074658 1.98985-2.568859 3.34044v.0351c-.551908 1.52407-.551908 3.19369 0 4.71776v.0351c.494201 1.35062 1.390919 2.51662 2.568859 3.34042 1.17793.8238 2.58023 1.2656 4.01721 1.2656s2.83928-.4418 4.0172-1.2656c1.1779-.8238 2.0747-1.9898 2.5689-3.34042 0 0 0 0 0-.0351.5519-1.52407.5519-3.19369 0-4.71776zm-12.0289 3.76298c-.24322-.92024-.24322-1.88796 0-2.8082h1.30459c-.1122.9327-.1122 1.8755 0 2.8082zm.57514 1.40409h.98195c.16463.62611.39994 1.23141.70139 1.80431-.68786-.4691-1.26286-1.0854-1.68334-1.80431zm.98195-5.61638h-.98195c.41443-.71673.98208-1.33286 1.6623-1.80427-.2942.57375-.52244 1.17904-.68035 1.80427zm3.17029 8.21399c-.86147-.6328-1.46651-1.5549-1.70438-2.59761h1.70438zm0-4.0017h-2.00598c-.13089-.93148-.13089-1.87672 0-2.8082h2.00598zm0-4.21229h-1.70438c.23787-1.04271.84291-1.96481 1.70438-2.59758zm5.55502 0h-.9819c-.1647-.62612-.4-1.23144-.7014-1.80427.6878.46902 1.2628 1.08533 1.6833 1.80427zm-4.15224-2.59758c.86148.63277 1.46651 1.55487 1.70439 2.59758h-1.70439zm0 10.81157v-2.59761h1.70439c-.23788 1.04271-.84291 1.96481-1.70439 2.59761zm2.00598-4.0017h-2.00598v-2.8082h2.00598c.13089.93148.13089 1.87672 0 2.8082zm.48396 3.2084c.3015-.5729.5368-1.1782.7014-1.80431h.9819c-.4204.71891-.9954 1.33521-1.6833 1.80431zm2.2374-3.2084h-1.3045c.057-.46584.0851-.93478.0841-1.4041.0008-.46932-.0273-.93824-.0841-1.4041h1.3045c.2433.92024.2433 1.88796 0 2.8082z" fill="#000"/></svg>