<svg width="13" height="13" viewBox="0 0 13 13" fill="none" xmlns="http://www.w3.org/2000/svg">
<path d="M1.66842 6.83583C1.6942 6.76934 1.73285 6.7086 1.78217 6.65708L3.40717 5.03208C3.50916 4.93009 3.6475 4.87278 3.79175 4.87278C3.936 4.87278 4.07433 4.93009 4.17633 5.03208C4.27833 5.13408 4.33563 5.27242 4.33563 5.41667C4.33563 5.56091 4.27833 5.69925 4.17633 5.80125L3.47217 6.5H8.66675C8.81041 6.5 8.94818 6.44293 9.04976 6.34135C9.15135 6.23977 9.20841 6.10199 9.20841 5.95833V3.79167C9.20841 3.64801 9.26548 3.51023 9.36707 3.40865C9.46865 3.30707 9.60642 3.25 9.75008 3.25C9.89374 3.25 10.0315 3.30707 10.1331 3.40865C10.2347 3.51023 10.2917 3.64801 10.2917 3.79167V5.95833C10.2917 6.38931 10.1205 6.80264 9.8158 7.10738C9.51105 7.41213 9.09772 7.58333 8.66675 7.58333H3.47217L4.17633 8.28208C4.2271 8.33244 4.2674 8.39235 4.2949 8.45835C4.3224 8.52436 4.33656 8.59516 4.33656 8.66667C4.33656 8.73817 4.3224 8.80897 4.2949 8.87498C4.2674 8.94099 4.2271 9.00089 4.17633 9.05125C4.12598 9.10202 4.06607 9.14232 4.00006 9.16982C3.93405 9.19732 3.86325 9.21147 3.79175 9.21147C3.72024 9.21147 3.64944 9.19732 3.58344 9.16982C3.51743 9.14232 3.45752 9.10202 3.40717 9.05125L1.78217 7.42625C1.73285 7.37474 1.6942 7.31399 1.66842 7.2475C1.61424 7.11563 1.61424 6.96771 1.66842 6.83583Z" fill="#353536"/>
</svg>
