<svg width="13" height="13" viewBox="0 0 13 13" fill="none" xmlns="http://www.w3.org/2000/svg">
<path d="M9.59294 6.11542C9.54258 6.06465 9.48267 6.02435 9.41666 5.99685C9.35066 5.96935 9.27986 5.95519 9.20835 5.95519C9.13685 5.95519 9.06605 5.96935 9.00004 5.99685C8.93403 6.02435 8.87412 6.06465 8.82377 6.11542L7.04169 7.90292V3.79167C7.04169 3.64801 6.98462 3.51023 6.88304 3.40865C6.78145 3.30707 6.64368 3.25 6.50002 3.25C6.35636 3.25 6.21859 3.30707 6.117 3.40865C6.01542 3.51023 5.95835 3.64801 5.95835 3.79167V7.90292L4.17627 6.11542C4.07427 6.01342 3.93593 5.95612 3.79169 5.95612C3.64744 5.95612 3.5091 6.01342 3.4071 6.11542C3.3051 6.21741 3.2478 6.35575 3.2478 6.5C3.2478 6.64425 3.3051 6.78259 3.4071 6.88458L6.11544 9.59292C6.16695 9.64223 6.2277 9.68089 6.29419 9.70667C6.35902 9.73532 6.42913 9.75013 6.50002 9.75013C6.57091 9.75013 6.64101 9.73532 6.70585 9.70667C6.77234 9.68089 6.83309 9.64223 6.8846 9.59292L9.59294 6.88458C9.6437 6.83423 9.684 6.77432 9.7115 6.70831C9.739 6.64231 9.75316 6.57151 9.75316 6.5C9.75316 6.42849 9.739 6.35769 9.7115 6.29169C9.684 6.22568 9.6437 6.16577 9.59294 6.11542Z" fill="#353536"/>
</svg>
